<?xml version="1.0" encoding="utf-8"?>
<!-- Generator: Adobe Illustrator 16.0.0, SVG Export Plug-In . SVG Version: 6.00 Build 0)  -->
<!DOCTYPE svg PUBLIC "-//W3C//DTD SVG 1.1//EN" "http://www.w3.org/Graphics/SVG/1.1/DTD/svg11.dtd">
<svg version="1.1" id="Layer_1" xmlns="http://www.w3.org/2000/svg" xmlns:xlink="http://www.w3.org/1999/xlink" x="0px" y="0px"
	 width="417.536px" height="426.601px" viewBox="0 0 417.536 426.601" enable-background="new 0 0 417.536 426.601"
	 xml:space="preserve">
<g>
	<path fill-rule="evenodd" clip-rule="evenodd" fill="#F4F3F3" d="M45.338,214.178c0-10.165-0.112-20.332,0.069-30.493
		c0.055-3.047-0.826-4.424-3.911-5.008c-10.028-1.9-18.942-6.428-26.305-13.371c-8.437-7.954-14.022-17.991-15.577-29.438
		c-2.395-17.644,1.756-33.791,14.497-46.885c19.758-20.306,53.772-20.823,74.205-1.212c2.027,1.946,3.244,2.156,5.818,0.651
		c18.638-10.893,37.326-21.711,56.248-32.098c4.878-2.677,5.332-6.806,5.844-11.068c4.343-36.138,44.734-55.527,75.812-39.68
		c17.818,9.087,28.009,23.406,29.229,43.625c0.15,2.492,1.226,3.937,3.275,5.116c19.436,11.17,38.854,22.368,58.24,33.623
		c2.379,1.381,4.044,1.215,6.132-0.758c10.163-9.601,22.672-14.074,36.322-13.837c28.252,0.492,51.837,22.894,52.199,51.995
		c0.188,15.044-4.723,27.775-14.684,38.483c-7.89,8.482-18.116,13.419-29.587,15.21c-2.97,0.464-3.933,1.238-3.918,4.208
		c0.1,20.663,0.088,41.327,0.015,61.989c-0.011,3.182,0.828,4.52,4.387,5.076c19.225,3.008,36.651,17.783,41.736,37.348
		c5.13,19.738,1.159,37.389-12.696,52.17c-8.476,9.041-19.412,14.062-32.056,15.424c-18.152,1.953-33.236-3.697-45.635-16.906
		c-1.935-2.061-3.67-2.699-6.495-1.037c-17.745,10.439-35.578,20.734-53.486,30.893c-2.67,1.516-3.806,3.102-3.766,6.209
		c0.245,19.316-8.533,34.088-24.614,43.865c-18.179,11.057-37.091,11.08-55.715,0.225c-16.491-9.611-23.952-24.613-25.512-43.021
		c-0.219-2.59-0.809-4.1-3.203-5.471c-18.299-10.477-36.491-21.139-54.707-31.762c-2.483-1.447-4.584-1.375-6.666,0.881
		c-10.113,10.961-23.022,16.494-37.586,16.785c-12.096,0.242-23.602-3.338-33.492-10.867C9.133,336.953,2.254,326.291,0,313.234
		c-3.486-20.199,2.582-40.846,21.054-53.98c6.365-4.525,13.266-7.627,20.877-8.898c2.901-0.482,3.467-1.629,3.446-4.184
		C45.286,235.507,45.338,224.843,45.338,214.178z M251.962,53.696c-0.526-27.453-19.827-43.949-43.813-43.831
		c-22.342,0.109-42.321,19.5-42.26,43.527c0.059,23.341,19.392,42.645,42.493,42.616C233.139,95.976,251.102,74.844,251.962,53.696z
		 M364.205,169.349c25.388,0.292,42.929-19.167,43.616-43.107c0.738-25.729-20.51-42.813-41.508-42.893
		c-28.042-0.107-44.918,22.637-44.935,43.452C321.362,148.532,341.537,170.376,364.205,169.349z M364.102,345.195
		c25.079,0.012,42.495-18.854,43.5-42.307c1.104-25.746-19.878-43.137-41.901-43.492c-23.128-0.371-44.089,19.598-44.104,43.295
		C321.582,325.82,340.792,345.041,364.102,345.195z M208.513,415.996c25.702-1.32,43.076-18.801,43.025-45.42
		c-0.044-23.357-17.299-39.686-42.972-40.932c-21.617-1.051-43.053,21.047-42.541,43.648
		C166.595,398.345,183.472,414.945,208.513,415.996z M52.11,345.009c19.176,0.832,43.533-13.926,42.751-47.09
		c-0.47-19.926-18.188-39.104-41.962-38.295c-26.1,0.887-43.043,19.736-43.45,42.756C9.015,326.923,29.117,346.251,52.11,345.009z
		 M94.491,126.5c-1.199-26.417-15.315-42.036-42.621-42.248C27.49,84.064,8.61,103.999,9.124,128.911
		c0.452,21.932,19.942,40.601,42.434,40.647C75.257,169.607,94.661,150.146,94.491,126.5z M198.196,212.688
		c-13.042-7.396-25.583-14.518-38.133-21.621c-7.944-4.497-15.895-8.98-23.861-13.437c-1.746-0.976-3.405-2.106-4.945,0.632
		c-6.51,11.569-13.166,23.055-19.766,34.572c-1.248,2.178-1.272,4.026,0.173,6.432c5.81,9.669,11.437,19.46,16.781,29.394
		c1.86,3.455,3.313,3.486,6.446,1.578c12.182-7.422,24.556-14.527,36.837-21.787C180.417,223.316,189.073,218.125,198.196,212.688z
		 M213.331,221.351c0,23.482,0.015,46.223-0.02,68.963c-0.004,2.637,1.583,2.867,3.604,2.863c13.637-0.021,27.273-0.029,40.91,0.012
		c1.805,0.006,3.095-0.379,4.075-2.119c5.047-8.949,10.002-17.963,15.426-26.682c2.844-4.574,1.173-6.498-2.87-8.727
		c-14.949-8.24-29.734-16.777-44.6-25.172C224.577,227.509,219.246,224.619,213.331,221.351z M202.319,258.623
		c0-9.82,0.013-19.643-0.005-29.465c-0.01-5.324-0.513-5.623-5.126-2.898c-8.854,5.23-17.66,10.539-26.521,15.754
		c-9.862,5.809-19.796,11.49-29.615,17.367c-1.951,1.168-5.087,2.289-3.164,5.619c4.976,8.617,10.172,17.107,15.14,25.729
		c1.209,2.1,2.829,2.469,4.964,2.463c13.317-0.045,26.636-0.139,39.951,0.053c3.64,0.053,4.496-1.299,4.438-4.658
		C202.207,278.601,202.319,268.611,202.319,258.623z M221.372,212.288c1.338,1.037,1.939,1.632,2.65,2.035
		c19.92,11.292,39.87,22.53,59.755,33.885c2.273,1.297,2.875,0.037,3.762-1.51c4.954-8.633,9.868-17.289,14.962-25.84
		c1.547-2.595,1.56-4.735,0.016-7.338c-6.008-10.127-11.78-20.395-17.772-30.532c-3.542-5.991-3.613-5.858-9.771-2.212
		c-6.709,3.974-13.533,7.749-20.252,11.706C243.743,198.947,232.811,205.489,221.372,212.288z M202.304,201.931
		c0-22.786-0.01-44.879,0.014-66.971c0.003-2.684-1.723-2.78-3.688-2.777c-12.654,0.016-25.308,0.019-37.962-0.006
		c-1.587-0.003-2.856,0.234-3.748,1.814c-5.385,9.537-10.764,19.079-16.319,28.517c-1.893,3.217-0.705,4.492,2.217,6.006
		c6.478,3.358,12.729,7.15,19.092,10.731C175.172,186.709,188.447,194.151,202.304,201.931z M213.318,167.814
		c0,10.497,0.021,20.994-0.016,31.491c-0.009,2.521,0.058,4.64,3.455,2.635c18.586-10.965,37.186-21.908,55.767-32.881
		c2.054-1.212,3.06-2.32,1.369-5.105c-5.856-9.649-11.351-19.522-16.819-29.402c-1.212-2.188-2.833-2.397-4.938-2.387
		c-11.497,0.049-22.996,0.156-34.488-0.053c-3.703-0.068-4.438,1.424-4.388,4.711C213.417,147.152,213.318,157.484,213.318,167.814z
		 M286.302,121.19c6.983,0,13.971-0.109,20.951,0.051c3.045,0.069,4.68-0.964,5.043-4.062c0.625-5.333,2.341-10.336,5.023-14.98
		c1.312-2.273,1.728-3.595-1.309-5.299c-17.632-9.888-35.131-20.016-52.531-30.306c-2.938-1.738-3.545-0.341-4.024,1.773
		c-1.895,8.349-6.369,15.2-12.153,21.295c-1.396,1.47-1.989,2.442-0.671,4.606c4.74,7.782,9.144,15.772,13.577,23.737
		c1.284,2.309,3.004,3.264,5.64,3.221C272.664,121.116,279.483,121.19,286.302,121.19z M128.365,121.191
		c5.653,0,11.333-0.35,16.949,0.11c4.509,0.368,7.041-1.367,9.075-5.143c4.164-7.73,8.398-15.441,13.046-22.884
		c1.772-2.837,1.514-4.617-0.44-6.962c-4.28-5.142-7.857-10.798-9.19-17.42c-0.76-3.774-2.263-2.985-4.526-1.674
		c-17.203,9.963-34.394,19.947-51.664,29.793c-3.002,1.711-3.514,3.445-1.738,6.359c2.532,4.157,4.016,8.795,4.358,13.611
		c0.235,3.307,1.624,4.294,4.68,4.242C115.396,121.111,121.881,121.189,128.365,121.191z M127.209,304.167
		c-5.661,0-11.325,0.113-16.982-0.045c-3.03-0.086-4.832,0.25-5.198,4.053c-0.537,5.572-1.837,11.104-4.362,16.203
		c-0.795,1.609-0.758,2.514,1.016,3.525c17.285,9.879,34.52,19.844,51.739,29.836c2.336,1.355,4.087,1.477,4.765-1.574
		c1.222-5.504,4.313-10.045,7.481-14.51c1.427-2.01,1.672-3.375,0.248-5.707c-4.756-7.785-9.461-15.645-13.478-23.824
		c-3.085-6.283-7.11-9.24-14.257-8.059C134.616,304.654,130.873,304.167,127.209,304.167z M358.299,214.673
		c0-8.982,0-17.964,0-26.946c0-7.678-0.004-7.663-7.707-9.656c-1.441-0.374-2.939-0.727-4.24-1.413
		c-3.331-1.76-5.318-0.623-7.059,2.463c-6.266,11.118-12.608,22.195-19.1,33.183c-2.008,3.396-2.054,6.312-0.016,9.714
		c6.049,10.092,11.951,20.273,17.748,30.512c1.268,2.238,2.352,2.531,4.719,1.59c3.986-1.584,8.118-3.043,12.324-3.748
		c2.97-0.5,3.38-1.785,3.361-4.262C358.254,235.632,358.298,225.152,358.299,214.673z M315.864,324.304
		c-2.691-4.854-3.549-10.496-4.36-16.02c-0.468-3.182-1.295-4.219-4.492-4.178c-11.978,0.152-23.958,0.139-35.936,0.002
		c-2.717-0.031-4.267,0.998-5.559,3.24c-5.214,9.047-10.521,18.041-15.835,27.029c-1.136,1.922-1.072,3.279,0.419,5.277
		c3.354,4.494,6.84,9.078,8.283,14.627c0.94,3.615,2.543,3.322,5.129,1.814c16.758-9.766,33.556-19.463,50.327-29.203
		C314.765,326.357,316.192,326.15,315.864,324.304z M56.338,213.911c0,10.489-0.006,20.979,0.005,31.469
		c0.002,1.996-0.246,4.441,2.52,4.633c4.715,0.33,9.084,1.873,13.477,3.33c1.744,0.578,2.639,0.402,3.584-1.262
		c6.305-11.109,12.729-22.154,19.063-33.25c0.88-1.541,1.72-2.993,0.499-5.055c-6.854-11.559-13.605-23.18-20.203-34.886
		c-1.474-2.615-2.943-2.993-5.626-2.015c-2.934,1.07-6.078,2.145-9.134,2.154c-3.879,0.013-4.271,1.796-4.231,4.911
		C56.416,193.929,56.337,203.92,56.338,213.911z M331.342,169.757c-0.344-0.658-0.57-1.505-1.104-2.05
		c-3.48-3.546-7.034-7.016-9.983-11.045c-1.314-1.797-2.853-1.157-4.373-0.251c-6.962,4.15-13.863,8.409-20.923,12.39
		c-2.879,1.624-3.231,3.531-1.751,6.118c5.177,9.049,10.408,18.065,15.578,27.118c2.027,3.551,3.294,2.377,4.85-0.456
		c4.223-7.688,8.512-15.344,13.008-22.873C328.349,175.852,329.957,172.99,331.342,169.757z M103.245,204.567
		c6.521-11.375,12.533-21.846,18.527-32.329c0.99-1.732,0.118-2.696-1.415-3.559c-6.939-3.909-13.863-7.846-20.732-11.875
		c-1.924-1.129-3.172-1.108-4.409,0.963c-2.504,4.192-5.975,7.592-9.934,10.353c-2.21,1.541-1.658,2.879-0.665,4.578
		C90.639,182.999,96.659,193.3,103.245,204.567z M120.135,257.083c-0.124-0.311-0.252-0.801-0.496-1.225
		c-5.039-8.75-9.981-17.561-15.205-26.199c-1.651-2.734-2.577-0.248-3.347,1.072c-4.835,8.293-9.591,16.635-14.481,24.896
		c-1.708,2.885-1.501,5.131,1.052,7.457c2.437,2.221,4.702,4.689,6.715,7.301c1.464,1.898,2.854,1.982,4.678,0.902
		c6.266-3.709,12.555-7.381,18.772-11.17C118.849,259.494,120.396,259.017,120.135,257.083z M290.587,132.189
		c-5.831,0-11.664,0.068-17.493-0.029c-2.806-0.047-4.355,0.443-2.528,3.572c4.268,7.312,8.524,14.632,12.742,21.974
		c1.433,2.494,3.232,3.098,5.763,1.591c7.418-4.415,14.999-8.573,22.246-13.25c4.651-3,0.755-7.319,0.678-10.986
		c-0.058-2.706-2.557-2.944-4.913-2.903C301.585,132.254,296.085,132.189,290.587,132.189z M125.226,132.188
		c-3.32,0-6.641,0-9.961,0c-9.809,0-9.599,0.057-12.141,9.627c-0.844,3.18,0.033,4.306,2.641,5.661
		c6.313,3.278,12.679,6.555,18.563,10.515c3.454,2.325,5.071,1.729,6.871-1.499c3.866-6.936,7.803-13.833,11.806-20.691
		c1.734-2.971,0.685-3.714-2.34-3.645C135.521,132.275,130.373,132.189,125.226,132.188z M292.839,293.169
		c2.161,0,4.324,0.031,6.485-0.008c3.978-0.07,8.498,0.963,11.779-0.596c3.315-1.574,2.129-6.975,4.137-10.223
		c1.459-2.359,0.395-3.471-1.725-4.609c-6.863-3.689-13.698-7.441-20.399-11.412c-2.031-1.203-3.185-1.289-4.4,0.816
		c-4.392,7.602-8.856,15.164-13.274,22.752c-1.271,2.186-0.881,3.35,1.933,3.301C282.528,293.105,287.684,293.167,292.839,293.169z
		 M181.822,304.167c-5.479,0-10.963,0.152-16.434-0.051c-3.851-0.145-4.343,1.096-2.501,4.217
		c3.869,6.553,7.698,13.131,11.384,19.787c1.526,2.758,3.302,1.648,4.928,0.559c4.027-2.697,8.378-4.756,12.927-6.254
		c10.649-3.504,10.685-3.396,10.191-14.381c-0.007-0.166-0.02-0.334-0.003-0.498c0.272-2.666-1.087-3.449-3.56-3.406
		C193.112,304.238,187.466,304.171,181.822,304.167z M254.039,304.167c-10.323,0-19.938,0-29.552,0
		c-11.309,0-11.18,0.002-11.251,11.199c-0.021,3.205,0.729,4.938,4.093,5.336c6.687,0.793,12.786,3.439,18.501,6.807
		c3.099,1.824,4.691,0.943,6.202-1.805C245.849,318.765,249.741,311.867,254.039,304.167z M310.896,229.531
		c-0.339,0.297-0.959,0.623-1.254,1.137c-4.222,7.338-8.397,14.699-12.585,22.055c-1.235,2.17,0.356,2.934,1.85,3.795
		c5.893,3.396,11.746,6.863,17.669,10.207c2.809,1.586,5.332,3.727,8.748,0.156c3.266-3.41,4.984-6.094,2.077-10.703
		c-5.041-7.994-9.57-16.312-14.342-24.479C312.585,230.888,312.425,229.736,310.896,229.531z M183.296,121.191
		c2.825,0,5.651,0.068,8.473-0.013c12.442-0.355,10.263,2.705,10.588-11.336c0.068-2.938-1.208-4.241-3.946-4.627
		c-5.972-0.844-11.546-2.837-16.643-6.074c-2.495-1.584-4.216-1.118-5.682,1.492c-3.322,5.917-6.748,11.778-10.229,17.603
		c-1.571,2.628-0.458,3.028,1.987,2.983C172.994,121.125,178.146,121.19,183.296,121.191z M141.043,293.164
		c-4.242-7.609-8.067-14.391-11.81-21.217c-1.578-2.879-3.068-3.908-6.368-1.695c-5.779,3.871-11.956,7.152-17.987,10.645
		c-1.511,0.875-3.925,1.34-2.461,3.797c1.68,2.818-0.484,8.279,5.018,8.4C118.401,293.333,129.376,293.164,141.043,293.164z
		 M249.049,121.184c-3.962-6.996-7.564-13.46-11.286-19.855c-0.882-1.516-2.184-2.442-4.148-1.289
		c-5.499,3.227-11.56,4.922-17.77,6.039c-2.224,0.399-2.752,1.651-2.498,3.476c0.527,3.791-1.467,7.893,1.338,11.363
		c0.297,0.366,1.264,0.256,1.92,0.257C227.196,121.188,237.787,121.184,249.049,121.184z"/>
	<path fill-rule="evenodd" clip-rule="evenodd" fill="#DC4D3C" d="M251.962,53.696c-0.86,21.148-18.823,42.28-43.58,42.312
		c-23.101,0.029-42.434-19.275-42.493-42.616c-0.062-24.026,19.918-43.417,42.26-43.527
		C232.135,9.747,251.436,26.243,251.962,53.696z"/>
	<path fill-rule="evenodd" clip-rule="evenodd" fill="#DC4C3A" d="M364.205,169.349c-22.668,1.027-42.843-20.817-42.826-42.548
		c0.017-20.814,16.893-43.559,44.935-43.452c20.998,0.08,42.246,17.164,41.508,42.893
		C407.133,150.183,389.592,169.641,364.205,169.349z"/>
	<path fill-rule="evenodd" clip-rule="evenodd" fill="#DC4D3C" d="M364.102,345.195c-23.311-0.154-42.521-19.375-42.506-42.504
		c0.016-23.697,20.977-43.666,44.104-43.295c22.023,0.355,43.005,17.746,41.901,43.492
		C406.597,326.341,389.181,345.207,364.102,345.195z"/>
	<path fill-rule="evenodd" clip-rule="evenodd" fill="#DC4D3C" d="M208.513,415.996c-25.042-1.051-41.918-17.65-42.487-42.703
		c-0.513-22.602,20.924-44.699,42.541-43.648c25.673,1.246,42.928,17.574,42.972,40.932
		C251.589,397.195,234.215,414.675,208.513,415.996z"/>
	<path fill-rule="evenodd" clip-rule="evenodd" fill="#DC4D3C" d="M52.11,345.009c-22.993,1.242-43.095-18.086-42.661-42.629
		c0.407-23.02,17.351-41.869,43.45-42.756c23.774-0.809,41.492,18.369,41.962,38.295C95.643,331.083,71.286,345.841,52.11,345.009z"
		/>
	<path fill-rule="evenodd" clip-rule="evenodd" fill="#DC4D3B" d="M94.491,126.5c0.169,23.646-19.234,43.107-42.934,43.058
		c-22.492-0.046-41.981-18.715-42.434-40.647C8.61,103.999,27.49,84.064,51.871,84.252C79.176,84.464,93.292,100.083,94.491,126.5z"
		/>
</g>
</svg>
